<svg xmlns="http://www.w3.org/2000/svg" width="359.763" height="227.339" viewBox="0 0 359.763 227.339">
  <g id="Groupe_409" data-name="Groupe 409" transform="translate(-56 -88.305)">
    <g id="Groupe_396" data-name="Groupe 396" transform="translate(56 88.305)">
      <g id="Groupe_396-2" data-name="Groupe 396" transform="translate(0 0)">
        <path id="Tracé_230" data-name="Tracé 230" d="M44.282-43.628a23.412,23.412,0,0,1-2.817,1.434,18.143,18.143,0,0,1-3.5,1.088,20.331,20.331,0,0,1-4.145.4,19.486,19.486,0,0,1-7.805-1.515,18.017,18.017,0,0,1-6-4.143,18.689,18.689,0,0,1-3.849-6.055,19.68,19.68,0,0,1-1.353-7.3,20.4,20.4,0,0,1,1.432-7.7,18.878,18.878,0,0,1,4.036-6.214,18.784,18.784,0,0,1,6.055-4.143,18.725,18.725,0,0,1,7.489-1.489,18.943,18.943,0,0,1,5.577.8A21.177,21.177,0,0,1,44.12-76.4l-1.113,2.39a19.932,19.932,0,0,0-4.2-1.965,15.2,15.2,0,0,0-4.939-.8,15.594,15.594,0,0,0-6.318,1.3,16.483,16.483,0,0,0-5.233,3.612,16.82,16.82,0,0,0-3.531,5.392,17.151,17.151,0,0,0-1.275,6.639A18.03,18.03,0,0,0,18.654-53.4a15.8,15.8,0,0,0,3.293,5.311,15.313,15.313,0,0,0,5.177,3.584,16.9,16.9,0,0,0,6.745,1.3,15.942,15.942,0,0,0,5.073-.771,18.006,18.006,0,0,0,4.115-1.938Z" transform="translate(-14.805 80.487)" fill="#245560"/>
        <path id="Tracé_231" data-name="Tracé 231" d="M34.3-40.487,50.237-79.842h.212L66.383-40.487H63.462L49.6-75.7l1.806-1.007-14.5,36.222Zm7.7-14.924h16.73l.744,2.443H41.368Z" transform="translate(7.121 79.842)" fill="#245560"/>
        <path id="Tracé_232" data-name="Tracé 232" d="M64.758-79.067a15.071,15.071,0,0,1,4.221.61,11.789,11.789,0,0,1,3.826,1.912,9.82,9.82,0,0,1,2.787,3.32,10.255,10.255,0,0,1,1.062,4.833,13.412,13.412,0,0,1-.637,4.115,9.756,9.756,0,0,1-2.071,3.586,10.23,10.23,0,0,1-3.718,2.549,14.6,14.6,0,0,1-5.63.954H58.756v15.829h-2.6V-79.067Zm-.319,19.386a11.915,11.915,0,0,0,4.674-.8,7.662,7.662,0,0,0,2.921-2.071,7.843,7.843,0,0,0,1.515-2.789A10.329,10.329,0,0,0,74-68.285a8.336,8.336,0,0,0-.61-3.187,7.815,7.815,0,0,0-1.78-2.63,8.558,8.558,0,0,0-2.815-1.806,9.737,9.737,0,0,0-3.665-.665H58.756v16.892Zm5.417,1.166L80.32-41.358H77.292L66.776-58.46Z" transform="translate(31.69 80.713)" fill="#245560"/>
        <path id="Tracé_233" data-name="Tracé 233" d="M72.479-59.933A18.778,18.778,0,0,1,73.966-67.4a19.714,19.714,0,0,1,4.143-6.161,19.515,19.515,0,0,1,6.135-4.2,18.488,18.488,0,0,1,7.461-1.515,18.687,18.687,0,0,1,7.489,1.515,19.433,19.433,0,0,1,6.161,4.2,20.052,20.052,0,0,1,4.17,6.161,18.5,18.5,0,0,1,1.513,7.463,18.487,18.487,0,0,1-1.513,7.461,19.681,19.681,0,0,1-4.17,6.133,19.255,19.255,0,0,1-6.161,4.145,19,19,0,0,1-7.489,1.487,19.376,19.376,0,0,1-7.461-1.434,19.029,19.029,0,0,1-6.135-4.036,18.691,18.691,0,0,1-4.143-6.108A19.369,19.369,0,0,1,72.479-59.933Zm2.656.051A16.531,16.531,0,0,0,76.409-53.4a16.529,16.529,0,0,0,3.558,5.311,16.9,16.9,0,0,0,5.286,3.584,15.884,15.884,0,0,0,6.4,1.3,16.342,16.342,0,0,0,6.533-1.3A16.821,16.821,0,0,0,103.5-48.09a16.886,16.886,0,0,0,3.586-5.311,16.377,16.377,0,0,0,1.3-6.533,16.447,16.447,0,0,0-1.3-6.507A17.1,17.1,0,0,0,103.5-71.8a16.971,16.971,0,0,0-5.311-3.637,15.943,15.943,0,0,0-6.48-1.328,15.812,15.812,0,0,0-6.533,1.353,16.79,16.79,0,0,0-5.284,3.692,16.817,16.817,0,0,0-3.505,5.39A16.885,16.885,0,0,0,75.135-59.882Z" transform="translate(50.046 80.487)" fill="#245560"/>
        <path id="Tracé_234" data-name="Tracé 234" d="M97.805-79.067h2.6v35.213h20.662v2.5H97.805Z" transform="translate(78.524 80.713)" fill="#245560"/>
        <path id="Tracé_235" data-name="Tracé 235" d="M115.529-79.067h23.263v2.494h-20.66v14.979H136.72v2.5H118.131v15.243h21.4v2.5H115.529Z" transform="translate(98.454 80.713)" fill="#245560"/>
      </g>
      <g id="Groupe_397" data-name="Groupe 397" transform="translate(1.581 58.144)">
        <path id="Tracé_236" data-name="Tracé 236" d="M15.549-23.569V-52.4h.034L29.224-31.179l-1.74-.419L41.055-52.4h.07v28.831H37.089V-42.345l.244,2.258L28.181-25.825h-.07L18.785-40.087l.695-2.067v18.585Z" transform="translate(-15.549 52.555)" fill="#245560"/>
        <path id="Tracé_237" data-name="Tracé 237" d="M32.6-51.933H49.407v4.283H36.671v7.419H48.016v4.283H36.671v7.572H49.894v4.283H32.6Z" transform="translate(3.625 53.08)" fill="#245560"/>
        <path id="Tracé_238" data-name="Tracé 238" d="M44.263-51.933H61.21v4.283H54.669v23.556H50.63V-47.65H44.263Z" transform="translate(16.738 53.08)" fill="#245560"/>
        <path id="Tracé_239" data-name="Tracé 239" d="M55.548-51.933H72.495v4.283H65.954v23.556H61.917V-47.65H55.548Z" transform="translate(29.428 53.08)" fill="#245560"/>
        <path id="Tracé_240" data-name="Tracé 240" d="M65.589-23.487l11.24-28.986h.244l11.2,28.986H83.649L75.716-45.513l2.921-2.1-9.046,24.13Zm7.1-10.323h8.629l1.392,3.745H71.435Z" transform="translate(40.718 52.473)" fill="#245560"/>
        <path id="Tracé_241" data-name="Tracé 241" d="M82.561-51.933,90.53-30.1,88.2-30.633l7.412-21.3h4.767L89.034-22.83,77.76-51.933Z" transform="translate(54.404 53.08)" fill="#245560"/>
        <path id="Tracé_242" data-name="Tracé 242" d="M89.9-23.487l11.24-28.986h.244l11.2,28.986h-4.629l-7.933-22.026,2.923-2.1L93.9-23.487ZM97-33.81h8.629l1.392,3.745H95.743Z" transform="translate(68.051 52.473)" fill="#245560"/>
        <path id="Tracé_243" data-name="Tracé 243" d="M126.615-22.594,107.163-43.32l1.217.535.07,19.2h-4.107V-52.383h.208l19.105,20.728-.905-.308-.068-19.464h4.034v28.833Z" transform="translate(84.296 52.574)" fill="#245560"/>
        <path id="Tracé_244" data-name="Tracé 244" d="M119.053-51.933H136v4.283h-6.543v23.556h-4.034V-47.65h-6.369Z" transform="translate(100.836 53.08)" fill="#245560"/>
      </g>
    </g>
    <g id="Groupe_408" data-name="Groupe 408" transform="translate(306.141 139.934)">
      <g id="Groupe_371" data-name="Groupe 371" transform="translate(0 0)">
        <path id="Tracé_218" data-name="Tracé 218" d="M116.122,133.627A22.524,22.524,0,1,0,93.6,111.1a22.524,22.524,0,0,0,22.524,22.524" transform="translate(-93.598 -88.579)" fill="#245560"/>
      </g>
      <g id="Groupe_398" data-name="Groupe 398" transform="translate(19.701 14.47)">
        <path id="Tracé_245" data-name="Tracé 245" d="M97.609,115.691a10.657,10.657,0,0,1-4.386-.9A9.658,9.658,0,0,1,89.8,112.27l2.531-3.66a10.329,10.329,0,0,0,2.6,1.972,4.581,4.581,0,0,0,3.49.429,2.084,2.084,0,0,0,.938-.524,1.269,1.269,0,0,0,.349-.925,1.566,1.566,0,0,0-.589-1.284,4.881,4.881,0,0,0-1.5-.783q-.918-.309-1.964-.642a7.111,7.111,0,0,1-3.773-2.637,6.667,6.667,0,0,1-1.157-3.777,7.243,7.243,0,0,1,.764-3.16,6.47,6.47,0,0,1,2.442-2.66,7.975,7.975,0,0,1,4.341-1.07,13.632,13.632,0,0,1,4.059.524,9.648,9.648,0,0,1,3.14,1.712l-2.312,3.894a8.675,8.675,0,0,0-1.853-1.211,5,5,0,0,0-1.9-.547,2.872,2.872,0,0,0-1.33.191,2.155,2.155,0,0,0-.851.617,1.267,1.267,0,0,0-.306.809,1.6,1.6,0,0,0,.633,1.425,4.9,4.9,0,0,0,1.723.807q1.045.285,2.05.665a7.784,7.784,0,0,1,2.4,1.284,5.622,5.622,0,0,1,1.549,1.923,6.067,6.067,0,0,1,.546,2.686,7.549,7.549,0,0,1-.894,3.586,6.831,6.831,0,0,1-2.705,2.732A9.124,9.124,0,0,1,97.609,115.691Z" transform="translate(-52.212 -93.502)" fill="#245560"/>
        <path id="Tracé_246" data-name="Tracé 246" d="M131.578,115.833a11.459,11.459,0,0,1-5.913-1.425,9.354,9.354,0,0,1-3.686-3.944,12.739,12.739,0,0,1-1.265-5.8,10.929,10.929,0,0,1,1.482-5.653A11.32,11.32,0,0,1,126.167,95a10.527,10.527,0,0,1,5.541-1.5,9.23,9.23,0,0,1,6.741,2.588,13.066,13.066,0,0,1,3.425,7.483L127.04,108.7l-1.353-3.611,10.733-3.944-1.264.62a5.065,5.065,0,0,0-1.244-2.163,3.574,3.574,0,0,0-2.683-.925,4.165,4.165,0,0,0-2.378.689,4.4,4.4,0,0,0-1.571,1.949,7.448,7.448,0,0,0-.546,2.97,7.244,7.244,0,0,0,.654,3.256,4.581,4.581,0,0,0,1.79,1.97,4.883,4.883,0,0,0,2.53.667,5.074,5.074,0,0,0,1.941-.382,10.016,10.016,0,0,0,1.855-1l2.705,4.941a14.85,14.85,0,0,1-3.3,1.521A10.919,10.919,0,0,1,131.578,115.833Z" transform="translate(-51.953 -93.502)" fill="#245560"/>
        <path id="Tracé_247" data-name="Tracé 247" d="M76.413,156.615H69.04l-14.7-20.765h7.5Zm-11.518-6.654-4.276,6.654H54.553L62.1,145.5Zm.784-7.506L69.3,135.85h6.064l-7.549,11.4Z" transform="translate(-52.508 -93.533)" fill="#245560"/>
        <path id="Tracé_248" data-name="Tracé 248" d="M88.235,145.97a11.721,11.721,0,0,1,1.373-5.7A10.152,10.152,0,0,1,93.47,136.3a11.144,11.144,0,0,1,5.716-1.449,10.763,10.763,0,0,1,5.672,1.449,9.709,9.709,0,0,1,3.687,3.967,12.369,12.369,0,0,1,1.287,5.7,12.508,12.508,0,0,1-1.287,5.726,9.825,9.825,0,0,1-3.687,4.016,10.825,10.825,0,0,1-5.76,1.472,11.622,11.622,0,0,1-5.606-1.33A9.527,9.527,0,0,1,89.631,152,12.266,12.266,0,0,1,88.235,145.97Zm6.152.047A6.833,6.833,0,0,0,95,148.94a5.229,5.229,0,0,0,1.659,2.068,3.927,3.927,0,0,0,2.357.76,4.134,4.134,0,0,0,2.487-.76,4.906,4.906,0,0,0,1.614-2.068,7.875,7.875,0,0,0,0-5.867,4.929,4.929,0,0,0-1.614-2.044,4.127,4.127,0,0,0-2.487-.76,3.92,3.92,0,0,0-2.357.76A5.261,5.261,0,0,0,95,143.073,6.768,6.768,0,0,0,94.387,146.017Z" transform="translate(-52.225 -93.532)" fill="#245560"/>
        <path id="Tracé_249" data-name="Tracé 249" d="M96.809,167.481h6.109v37.488H96.809Z" transform="translate(-52.153 -93.556)" fill="#245560"/>
        <path id="Tracé_250" data-name="Tracé 250" d="M120.282,194.337a11.721,11.721,0,0,1,1.373-5.7,10.143,10.143,0,0,1,3.861-3.967,11.134,11.134,0,0,1,5.716-1.449,10.751,10.751,0,0,1,5.672,1.449,9.719,9.719,0,0,1,3.688,3.967,12.369,12.369,0,0,1,1.286,5.7,12.508,12.508,0,0,1-1.286,5.726,9.834,9.834,0,0,1-3.688,4.016,10.819,10.819,0,0,1-5.759,1.472,11.613,11.613,0,0,1-5.607-1.331,9.51,9.51,0,0,1-3.861-3.848A12.256,12.256,0,0,1,120.282,194.337Zm6.152.047a6.818,6.818,0,0,0,.61,2.923,5.219,5.219,0,0,0,1.658,2.068,3.931,3.931,0,0,0,2.357.76,4.132,4.132,0,0,0,2.487-.76,4.9,4.9,0,0,0,1.614-2.068,7.875,7.875,0,0,0,0-5.867,4.921,4.921,0,0,0-1.614-2.045,4.125,4.125,0,0,0-2.487-.76,3.924,3.924,0,0,0-2.357.76,5.25,5.25,0,0,0-1.658,2.045A6.753,6.753,0,0,0,126.434,194.384Z" transform="translate(-51.957 -93.568)" fill="#245560"/>
        <path id="Tracé_251" data-name="Tracé 251" d="M63.867,254.836a12.382,12.382,0,0,1-4.341-.666,11.273,11.273,0,0,1-2.989-1.616q-1.222-.952-2.181-1.8l3.577-4.563a17.472,17.472,0,0,0,2.334,1.926,6.04,6.04,0,0,0,3.513.925,6.607,6.607,0,0,0,2.683-.547,4.855,4.855,0,0,0,2.007-1.59,4.326,4.326,0,0,0,.763-2.614v-4.563l.219,1.188a6.571,6.571,0,0,1-2.531,2.828,9.287,9.287,0,0,1-9.576-.237,10.4,10.4,0,0,1-3.513-3.944,12.038,12.038,0,0,1-1.309-5.679,11.9,11.9,0,0,1,1.4-5.821,11.139,11.139,0,0,1,3.623-4.013,8.39,8.39,0,0,1,4.712-1.475,10.744,10.744,0,0,1,4.3.786,6.942,6.942,0,0,1,2.728,1.923l-.219.619.654-2.281h5.628v20.764a9.48,9.48,0,0,1-1.57,5.393,11.073,11.073,0,0,1-4.167,3.7A12.189,12.189,0,0,1,63.867,254.836Zm-5.192-21.143a6.339,6.339,0,0,0,.7,2.993,5.359,5.359,0,0,0,1.9,2.09,4.924,4.924,0,0,0,2.683.76,6.518,6.518,0,0,0,2.248-.359,5.23,5.23,0,0,0,1.743-1.044,5.771,5.771,0,0,0,1.288-1.735v-5.083a4.635,4.635,0,0,0-1.178-1.781,5.656,5.656,0,0,0-1.811-1.142,6.232,6.232,0,0,0-2.29-.4,5.034,5.034,0,0,0-2.683.735,5.264,5.264,0,0,0-1.9,2.021A6.065,6.065,0,0,0,58.675,233.694Z" transform="translate(-52.523 -93.596)" fill="#245560"/>
        <path id="Tracé_252" data-name="Tracé 252" d="M98.133,245.382a5.893,5.893,0,0,1-4.319-1.735,6.364,6.364,0,0,1-1.833-4.491V223.62h6.11v13.067a4.343,4.343,0,0,0,.654,2.208,2.152,2.152,0,0,0,1.919.83,3.168,3.168,0,0,0,2.335-1,6.7,6.7,0,0,0,1.527-2.73,13.081,13.081,0,0,0,.545-3.921V223.62h6.11v20.764h-5.542l-.48-3.8.087.429a8.887,8.887,0,0,1-1.657,2.281,7.031,7.031,0,0,1-2.379,1.544A8.269,8.269,0,0,1,98.133,245.382Z" transform="translate(-52.193 -93.597)" fill="#245560"/>
        <path id="Tracé_253" data-name="Tracé 253" d="M131.578,244.954a11.46,11.46,0,0,1-5.913-1.426,9.354,9.354,0,0,1-3.686-3.944,12.735,12.735,0,0,1-1.265-5.8,10.933,10.933,0,0,1,1.482-5.654,11.309,11.309,0,0,1,3.971-4.013,10.518,10.518,0,0,1,5.541-1.5,9.23,9.23,0,0,1,6.741,2.588,13.066,13.066,0,0,1,3.425,7.484l-14.834,5.132-1.353-3.611,10.733-3.944-1.264.619a5.062,5.062,0,0,0-1.244-2.162,3.57,3.57,0,0,0-2.683-.925,4.165,4.165,0,0,0-2.378.688,4.394,4.394,0,0,0-1.571,1.95,7.443,7.443,0,0,0-.546,2.969,7.244,7.244,0,0,0,.654,3.256,4.581,4.581,0,0,0,1.79,1.97,4.873,4.873,0,0,0,2.53.668,5.093,5.093,0,0,0,1.941-.381,10.024,10.024,0,0,0,1.855-1l2.705,4.941a14.807,14.807,0,0,1-3.3,1.521A10.891,10.891,0,0,1,131.578,244.954Z" transform="translate(-51.953 -93.596)" fill="#245560"/>
      </g>
    </g>
  </g>
</svg>
