<svg xmlns="http://www.w3.org/2000/svg" width="158.999" height="345.239" viewBox="0 0 158.999 345.239">
  <g id="Groupe_399" data-name="Groupe 399" transform="translate(-1046 -108.305)">
    <g id="Groupe_371" data-name="Groupe 371" transform="translate(952.695 89.421)">
      <path id="Tracé_218" data-name="Tracé 218" d="M121.96,145.3A28.362,28.362,0,1,0,93.6,116.941,28.362,28.362,0,0,0,121.96,145.3" fill="#245560"/>
    </g>
    <g id="Groupe_396" data-name="Groupe 396" transform="translate(1031.195 188.147)">
      <g id="Groupe_396-2" data-name="Groupe 396" transform="translate(14.805 -79.842)">
        <path id="Tracé_230" data-name="Tracé 230" d="M34.247-55.761a15.442,15.442,0,0,1-1.858.946,11.967,11.967,0,0,1-2.311.717,13.409,13.409,0,0,1-2.734.263,12.853,12.853,0,0,1-5.148-1,11.884,11.884,0,0,1-3.96-2.732A12.326,12.326,0,0,1,15.7-61.559a12.98,12.98,0,0,1-.893-4.816,13.458,13.458,0,0,1,.944-5.079,12.452,12.452,0,0,1,2.662-4.1,12.39,12.39,0,0,1,3.993-2.732,12.35,12.35,0,0,1,4.939-.982,12.494,12.494,0,0,1,3.678.525,13.968,13.968,0,0,1,3.118,1.368L33.406-75.8a13.146,13.146,0,0,0-2.769-1.3,10.023,10.023,0,0,0-3.258-.525,10.286,10.286,0,0,0-4.167.858,10.872,10.872,0,0,0-3.451,2.382,11.094,11.094,0,0,0-2.329,3.556,11.312,11.312,0,0,0-.841,4.379,11.892,11.892,0,0,0,.752,4.239,10.421,10.421,0,0,0,2.172,3.5,10.1,10.1,0,0,0,3.415,2.364,11.147,11.147,0,0,0,4.449.859,10.515,10.515,0,0,0,3.346-.509,11.876,11.876,0,0,0,2.714-1.278Z" transform="translate(-14.805 80.072)" fill="#245560"/>
        <path id="Tracé_231" data-name="Tracé 231" d="M34.3-53.884,44.813-79.842h.14L55.462-53.884H53.536L44.393-77.111l1.191-.664L36.021-53.884Zm5.079-9.844H50.418l.49,1.611H38.963Z" transform="translate(-6.982 79.842)" fill="#245560"/>
        <path id="Tracé_232" data-name="Tracé 232" d="M61.829-79.067a9.941,9.941,0,0,1,2.784.4A7.776,7.776,0,0,1,67.137-77.4a6.477,6.477,0,0,1,1.838,2.19,6.764,6.764,0,0,1,.7,3.188,8.847,8.847,0,0,1-.42,2.714,6.435,6.435,0,0,1-1.366,2.365,6.747,6.747,0,0,1-2.452,1.681,9.632,9.632,0,0,1-3.713.629H57.87V-54.2H56.154V-79.067Zm-.21,12.786a7.859,7.859,0,0,0,3.083-.525,5.054,5.054,0,0,0,1.927-1.366,5.173,5.173,0,0,0,1-1.84,6.813,6.813,0,0,0,.3-1.943,5.5,5.5,0,0,0-.4-2.1,5.155,5.155,0,0,0-1.174-1.735,5.645,5.645,0,0,0-1.857-1.191,6.422,6.422,0,0,0-2.417-.439h-4.2v11.141Zm3.573.769,6.9,11.316h-2L63.16-65.475Z" transform="translate(1.785 80.153)" fill="#245560"/>
        <path id="Tracé_233" data-name="Tracé 233" d="M72.479-66.515a12.385,12.385,0,0,1,.981-4.923A13,13,0,0,1,76.192-75.5a12.871,12.871,0,0,1,4.047-2.767,12.194,12.194,0,0,1,4.921-1,12.325,12.325,0,0,1,4.939,1A12.818,12.818,0,0,1,94.163-75.5a13.226,13.226,0,0,1,2.751,4.064,12.205,12.205,0,0,1,1,4.923,12.194,12.194,0,0,1-1,4.921,12.981,12.981,0,0,1-2.751,4.045A12.7,12.7,0,0,1,90.1-54.815a12.531,12.531,0,0,1-4.939.981,12.78,12.78,0,0,1-4.921-.946,12.551,12.551,0,0,1-4.047-2.662,12.328,12.328,0,0,1-2.732-4.029A12.775,12.775,0,0,1,72.479-66.515Zm1.752.034a10.9,10.9,0,0,0,.841,4.275,10.9,10.9,0,0,0,2.347,3.5A11.148,11.148,0,0,0,80.9-56.34a10.477,10.477,0,0,0,4.22.859,10.779,10.779,0,0,0,4.309-.859,11.094,11.094,0,0,0,3.5-2.364,11.137,11.137,0,0,0,2.365-3.5,10.8,10.8,0,0,0,.858-4.309,10.848,10.848,0,0,0-.858-4.292,11.277,11.277,0,0,0-2.365-3.538,11.194,11.194,0,0,0-3.5-2.4,10.516,10.516,0,0,0-4.274-.876,10.429,10.429,0,0,0-4.309.893,11.074,11.074,0,0,0-3.485,2.435,11.092,11.092,0,0,0-2.312,3.555A11.136,11.136,0,0,0,74.231-66.482Z" transform="translate(8.335 80.072)" fill="#245560"/>
        <path id="Tracé_234" data-name="Tracé 234" d="M97.805-79.067H99.52v23.225h13.628V-54.2H97.805Z" transform="translate(18.497 80.153)" fill="#245560"/>
        <path id="Tracé_235" data-name="Tracé 235" d="M115.529-79.067h15.343v1.645H117.245v9.88h12.261V-65.9H117.245v10.054h14.117V-54.2H115.529Z" transform="translate(25.608 80.153)" fill="#245560"/>
      </g>
      <g id="Groupe_397" data-name="Groupe 397" transform="translate(15.848 -41.492)">
        <path id="Tracé_236" data-name="Tracé 236" d="M15.549-33.384V-52.4h.022l9,14-1.148-.276L32.372-52.4h.046v19.016H29.756V-45.768l.161,1.49-6.036,9.406h-.046l-6.151-9.406.458-1.363v12.258Z" transform="translate(-15.549 52.502)" fill="#245560"/>
        <path id="Tracé_237" data-name="Tracé 237" d="M32.6-51.933H43.686v2.825h-8.4v4.893h7.483v2.825H35.286V-36.4h8.721v2.825H32.6Z" transform="translate(-8.707 52.69)" fill="#245560"/>
        <path id="Tracé_238" data-name="Tracé 238" d="M44.263-51.933H55.441v2.825H51.126v15.537H48.462V-49.108h-4.2Z" transform="translate(-4.028 52.69)" fill="#245560"/>
        <path id="Tracé_239" data-name="Tracé 239" d="M55.548-51.933H66.726v2.825H62.411v15.537H59.749V-49.108h-4.2Z" transform="translate(0.5 52.69)" fill="#245560"/>
        <path id="Tracé_240" data-name="Tracé 240" d="M65.589-33.355,73-52.473h.161l7.39,19.118H77.5L72.269-47.883,74.2-49.27,68.229-33.355Zm4.683-6.809h5.692l.918,2.47H69.445Z" transform="translate(4.528 52.473)" fill="#245560"/>
        <path id="Tracé_241" data-name="Tracé 241" d="M80.927-51.933l5.256,14.4-1.537-.353,4.889-14.049h3.144L85.2-32.738l-7.436-19.2Z" transform="translate(9.412 52.69)" fill="#245560"/>
        <path id="Tracé_242" data-name="Tracé 242" d="M89.9-33.355l7.414-19.118h.161l7.39,19.118h-3.053L96.577-47.883,98.5-49.27,92.537-33.355Zm4.683-6.809h5.692l.918,2.47H93.753Z" transform="translate(14.281 52.473)" fill="#245560"/>
        <path id="Tracé_243" data-name="Tracé 243" d="M119.033-32.735,106.2-46.405l.8.353.046,12.661h-2.709V-52.383h.137l12.6,13.672-.6-.2-.045-12.838H119.1v19.017Z" transform="translate(20.078 52.509)" fill="#245560"/>
        <path id="Tracé_244" data-name="Tracé 244" d="M119.053-51.933h11.178v2.825h-4.316v15.537h-2.661V-49.108h-4.2Z" transform="translate(25.979 52.69)" fill="#245560"/>
      </g>
    </g>
    <g id="Groupe_398" data-name="Groupe 398" transform="translate(1010.477 105.419)">
      <path id="Tracé_245" data-name="Tracé 245" d="M102.132,128.515a16.829,16.829,0,0,1-6.927-1.428,15.252,15.252,0,0,1-5.408-3.973l4-5.78a16.311,16.311,0,0,0,4.1,3.113,7.234,7.234,0,0,0,5.511.677,3.292,3.292,0,0,0,1.481-.827,2,2,0,0,0,.551-1.461,2.474,2.474,0,0,0-.93-2.028,7.708,7.708,0,0,0-2.376-1.237q-1.45-.488-3.1-1.013a11.229,11.229,0,0,1-5.959-4.164,10.528,10.528,0,0,1-1.826-5.965,11.438,11.438,0,0,1,1.207-4.99,10.217,10.217,0,0,1,3.857-4.2,12.6,12.6,0,0,1,6.855-1.69,21.527,21.527,0,0,1,6.409.827,15.235,15.235,0,0,1,4.959,2.7l-3.651,6.149a13.7,13.7,0,0,0-2.927-1.913,7.89,7.89,0,0,0-3-.863,4.535,4.535,0,0,0-2.1.3,3.4,3.4,0,0,0-1.344.974,2,2,0,0,0-.482,1.278,2.521,2.521,0,0,0,1,2.25,7.739,7.739,0,0,0,2.721,1.275q1.65.45,3.237,1.049a12.293,12.293,0,0,1,3.79,2.028,8.878,8.878,0,0,1,2.446,3.036,9.581,9.581,0,0,1,.861,4.242,11.922,11.922,0,0,1-1.412,5.663,10.788,10.788,0,0,1-4.272,4.314A14.408,14.408,0,0,1,102.132,128.515Z" transform="translate(22.08 0.027)" fill="#245560"/>
      <path id="Tracé_246" data-name="Tracé 246" d="M137.87,128.766a18.1,18.1,0,0,1-9.338-2.25,14.772,14.772,0,0,1-5.82-6.228,20.117,20.117,0,0,1-2-9.156,17.259,17.259,0,0,1,2.341-8.927,17.875,17.875,0,0,1,6.271-6.339,16.624,16.624,0,0,1,8.75-2.364,14.576,14.576,0,0,1,10.645,4.087q4.168,4.09,5.409,11.816l-23.425,8.1-2.137-5.7,16.949-6.228-2,.978a8,8,0,0,0-1.965-3.416,5.644,5.644,0,0,0-4.237-1.461,6.577,6.577,0,0,0-3.755,1.087,6.943,6.943,0,0,0-2.481,3.077,11.762,11.762,0,0,0-.861,4.69,11.44,11.44,0,0,0,1.033,5.141,7.235,7.235,0,0,0,2.826,3.11,7.711,7.711,0,0,0,4,1.054,8.013,8.013,0,0,0,3.065-.6,15.819,15.819,0,0,0,2.93-1.575l4.272,7.8a23.453,23.453,0,0,1-5.2,2.4A17.243,17.243,0,0,1,137.87,128.766Z" transform="translate(40.393 0)" fill="#245560"/>
      <path id="Tracé_247" data-name="Tracé 247" d="M89.2,168.641H77.556L54.335,135.85h11.85ZM71.01,158.133l-6.753,10.508H54.679L66.6,151.084Zm1.239-11.852,5.72-10.431h9.576l-11.92,18.01Z" transform="translate(1.073 24.477)" fill="#245560"/>
      <path id="Tracé_248" data-name="Tracé 248" d="M88.235,152.409a18.509,18.509,0,0,1,2.169-9,16.031,16.031,0,0,1,6.1-6.265,17.6,17.6,0,0,1,9.027-2.288,17,17,0,0,1,8.957,2.288,15.332,15.332,0,0,1,5.822,6.265,19.533,19.533,0,0,1,2.032,9,19.752,19.752,0,0,1-2.032,9.042,15.515,15.515,0,0,1-5.822,6.342,17.1,17.1,0,0,1-9.1,2.324,18.353,18.353,0,0,1-8.853-2.1,15.045,15.045,0,0,1-6.1-6.078A19.37,19.37,0,0,1,88.235,152.409Zm9.715.074a10.79,10.79,0,0,0,.963,4.616,8.258,8.258,0,0,0,2.619,3.265,6.2,6.2,0,0,0,3.721,1.2,6.528,6.528,0,0,0,3.927-1.2,7.748,7.748,0,0,0,2.549-3.265,12.436,12.436,0,0,0,0-9.264,7.784,7.784,0,0,0-2.549-3.229,6.517,6.517,0,0,0-3.927-1.2,6.19,6.19,0,0,0-3.721,1.2,8.307,8.307,0,0,0-2.619,3.229A10.687,10.687,0,0,0,97.95,152.483Z" transform="translate(21.154 23.9)" fill="#245560"/>
      <path id="Tracé_249" data-name="Tracé 249" d="M96.809,167.481h9.646v59.2H96.809Z" transform="translate(26.233 42.76)" fill="#245560"/>
      <path id="Tracé_250" data-name="Tracé 250" d="M120.282,200.776a18.509,18.509,0,0,1,2.169-9,16.017,16.017,0,0,1,6.1-6.265,17.583,17.583,0,0,1,9.027-2.288,16.977,16.977,0,0,1,8.957,2.288,15.347,15.347,0,0,1,5.823,6.265,19.532,19.532,0,0,1,2.03,9,19.751,19.751,0,0,1-2.03,9.042,15.53,15.53,0,0,1-5.823,6.342,17.085,17.085,0,0,1-9.094,2.324,18.338,18.338,0,0,1-8.855-2.1,15.018,15.018,0,0,1-6.1-6.077A19.353,19.353,0,0,1,120.282,200.776Zm9.715.074a10.767,10.767,0,0,0,.963,4.616,8.241,8.241,0,0,0,2.618,3.265,6.208,6.208,0,0,0,3.721,1.2,6.524,6.524,0,0,0,3.927-1.2,7.736,7.736,0,0,0,2.549-3.265,12.436,12.436,0,0,0,0-9.264,7.771,7.771,0,0,0-2.549-3.229,6.514,6.514,0,0,0-3.927-1.2,6.2,6.2,0,0,0-3.721,1.2,8.291,8.291,0,0,0-2.618,3.229A10.664,10.664,0,0,0,130,200.85Z" transform="translate(40.137 51.857)" fill="#245560"/>
      <path id="Tracé_251" data-name="Tracé 251" d="M70.437,273.522a19.551,19.551,0,0,1-6.855-1.051,17.8,17.8,0,0,1-4.72-2.552q-1.93-1.5-3.444-2.85l5.648-7.205a27.59,27.59,0,0,0,3.686,3.041,9.539,9.539,0,0,0,5.548,1.461,10.434,10.434,0,0,0,4.237-.863,7.667,7.667,0,0,0,3.169-2.511,6.832,6.832,0,0,0,1.205-4.128v-7.205l.346,1.876a10.376,10.376,0,0,1-4,4.466,14.665,14.665,0,0,1-15.123-.374A16.431,16.431,0,0,1,54.59,249.4a19.01,19.01,0,0,1-2.067-8.968,18.787,18.787,0,0,1,2.2-9.192,17.59,17.59,0,0,1,5.721-6.337,13.249,13.249,0,0,1,7.441-2.329,16.967,16.967,0,0,1,6.785,1.242,10.963,10.963,0,0,1,4.307,3.036l-.346.977,1.033-3.6h8.887v32.789a14.97,14.97,0,0,1-2.479,8.516,17.486,17.486,0,0,1-6.58,5.85A19.249,19.249,0,0,1,70.437,273.522Zm-8.2-33.387a10.01,10.01,0,0,0,1.1,4.726,8.463,8.463,0,0,0,3,3.3,7.776,7.776,0,0,0,4.237,1.2,10.292,10.292,0,0,0,3.549-.566,8.258,8.258,0,0,0,2.753-1.649,9.113,9.113,0,0,0,2.033-2.739V236.38a7.32,7.32,0,0,0-1.86-2.812,8.932,8.932,0,0,0-2.86-1.8,9.842,9.842,0,0,0-3.616-.636,7.95,7.95,0,0,0-4.237,1.161,8.313,8.313,0,0,0-3,3.191A9.577,9.577,0,0,0,62.238,240.135Z" transform="translate(0 74.603)" fill="#245560"/>
      <path id="Tracé_252" data-name="Tracé 252" d="M101.7,257.986a9.306,9.306,0,0,1-6.82-2.739,10.05,10.05,0,0,1-2.895-7.092V223.62h9.648v20.635a6.858,6.858,0,0,0,1.033,3.487,3.4,3.4,0,0,0,3.03,1.311,5,5,0,0,0,3.688-1.575,10.574,10.574,0,0,0,2.411-4.311,20.657,20.657,0,0,0,.86-6.192V223.62H122.3v32.789h-8.752l-.758-6,.137.677a14.034,14.034,0,0,1-2.616,3.6,11.1,11.1,0,0,1-3.756,2.438A13.06,13.06,0,0,1,101.7,257.986Z" transform="translate(23.373 75.208)" fill="#245560"/>
      <path id="Tracé_253" data-name="Tracé 253" d="M137.87,257.887a18.1,18.1,0,0,1-9.338-2.252,14.772,14.772,0,0,1-5.82-6.228,20.11,20.11,0,0,1-2-9.154,17.265,17.265,0,0,1,2.341-8.928,17.858,17.858,0,0,1,6.271-6.337,16.61,16.61,0,0,1,8.75-2.365,14.576,14.576,0,0,1,10.645,4.087q4.168,4.09,5.409,11.818l-23.425,8.1-2.137-5.7,16.949-6.228-2,.977a7.993,7.993,0,0,0-1.965-3.415,5.638,5.638,0,0,0-4.237-1.461,6.576,6.576,0,0,0-3.755,1.086,6.939,6.939,0,0,0-2.481,3.079,11.754,11.754,0,0,0-.861,4.688,11.44,11.44,0,0,0,1.033,5.141,7.235,7.235,0,0,0,2.826,3.11,7.7,7.7,0,0,0,4,1.054,8.042,8.042,0,0,0,3.065-.6,15.83,15.83,0,0,0,2.93-1.576l4.272,7.8a23.382,23.382,0,0,1-5.2,2.4A17.2,17.2,0,0,1,137.87,257.887Z" transform="translate(40.393 74.631)" fill="#245560"/>
    </g>
  </g>
</svg>
