<svg xmlns="http://www.w3.org/2000/svg" width="203" height="99" viewBox="0 0 203 99">
  <g id="Groupe_377" data-name="Groupe 377" transform="translate(-111 -968)">
    <g id="Groupe_402" data-name="Groupe 402">
      <g id="Rectangle_637" data-name="Rectangle 637" transform="translate(111 968)" fill="none" stroke="#245560" stroke-width="1">
        <rect width="203" height="99" stroke="none"/>
        <rect x="0.5" y="0.5" width="202" height="98" fill="none"/>
      </g>
      <g id="Groupe_401" data-name="Groupe 401" transform="translate(119.195 1067.147)">
        <g id="Groupe_396" data-name="Groupe 396" transform="translate(14.805 -79.842)">
          <path id="Tracé_230" data-name="Tracé 230" d="M34.247-55.761a15.442,15.442,0,0,1-1.858.946,11.967,11.967,0,0,1-2.311.717,13.409,13.409,0,0,1-2.734.263,12.853,12.853,0,0,1-5.148-1,11.884,11.884,0,0,1-3.96-2.732A12.326,12.326,0,0,1,15.7-61.559a12.98,12.98,0,0,1-.893-4.816,13.458,13.458,0,0,1,.944-5.079,12.452,12.452,0,0,1,2.662-4.1,12.39,12.39,0,0,1,3.993-2.732,12.35,12.35,0,0,1,4.939-.982,12.494,12.494,0,0,1,3.678.525,13.968,13.968,0,0,1,3.118,1.368L33.406-75.8a13.146,13.146,0,0,0-2.769-1.3,10.023,10.023,0,0,0-3.258-.525,10.286,10.286,0,0,0-4.167.858,10.872,10.872,0,0,0-3.451,2.382,11.094,11.094,0,0,0-2.329,3.556,11.312,11.312,0,0,0-.841,4.379,11.892,11.892,0,0,0,.752,4.239,10.421,10.421,0,0,0,2.172,3.5,10.1,10.1,0,0,0,3.415,2.364,11.147,11.147,0,0,0,4.449.859,10.515,10.515,0,0,0,3.346-.509,11.876,11.876,0,0,0,2.714-1.278Z" transform="translate(-14.805 80.072)" fill="#245560"/>
          <path id="Tracé_231" data-name="Tracé 231" d="M34.3-53.884,44.813-79.842h.14L55.462-53.884H53.536L44.393-77.111l1.191-.664L36.021-53.884Zm5.079-9.844H50.418l.49,1.611H38.963Z" transform="translate(-6.982 79.842)" fill="#245560"/>
          <path id="Tracé_232" data-name="Tracé 232" d="M61.829-79.067a9.941,9.941,0,0,1,2.784.4A7.776,7.776,0,0,1,67.137-77.4a6.477,6.477,0,0,1,1.838,2.19,6.764,6.764,0,0,1,.7,3.188,8.847,8.847,0,0,1-.42,2.714,6.435,6.435,0,0,1-1.366,2.365,6.747,6.747,0,0,1-2.452,1.681,9.632,9.632,0,0,1-3.713.629H57.87V-54.2H56.154V-79.067Zm-.21,12.786a7.859,7.859,0,0,0,3.083-.525,5.054,5.054,0,0,0,1.927-1.366,5.173,5.173,0,0,0,1-1.84,6.813,6.813,0,0,0,.3-1.943,5.5,5.5,0,0,0-.4-2.1,5.155,5.155,0,0,0-1.174-1.735,5.645,5.645,0,0,0-1.857-1.191,6.422,6.422,0,0,0-2.417-.439h-4.2v11.141Zm3.573.769,6.9,11.316h-2L63.16-65.475Z" transform="translate(1.785 80.153)" fill="#245560"/>
          <path id="Tracé_233" data-name="Tracé 233" d="M72.479-66.515a12.385,12.385,0,0,1,.981-4.923A13,13,0,0,1,76.192-75.5a12.871,12.871,0,0,1,4.047-2.767,12.194,12.194,0,0,1,4.921-1,12.325,12.325,0,0,1,4.939,1A12.818,12.818,0,0,1,94.163-75.5a13.226,13.226,0,0,1,2.751,4.064,12.205,12.205,0,0,1,1,4.923,12.194,12.194,0,0,1-1,4.921,12.981,12.981,0,0,1-2.751,4.045A12.7,12.7,0,0,1,90.1-54.815a12.531,12.531,0,0,1-4.939.981,12.78,12.78,0,0,1-4.921-.946,12.551,12.551,0,0,1-4.047-2.662,12.328,12.328,0,0,1-2.732-4.029A12.775,12.775,0,0,1,72.479-66.515Zm1.752.034a10.9,10.9,0,0,0,.841,4.275,10.9,10.9,0,0,0,2.347,3.5A11.148,11.148,0,0,0,80.9-56.34a10.477,10.477,0,0,0,4.22.859,10.779,10.779,0,0,0,4.309-.859,11.094,11.094,0,0,0,3.5-2.364,11.137,11.137,0,0,0,2.365-3.5,10.8,10.8,0,0,0,.858-4.309,10.848,10.848,0,0,0-.858-4.292,11.277,11.277,0,0,0-2.365-3.538,11.194,11.194,0,0,0-3.5-2.4,10.516,10.516,0,0,0-4.274-.876,10.429,10.429,0,0,0-4.309.893,11.074,11.074,0,0,0-3.485,2.435,11.092,11.092,0,0,0-2.312,3.555A11.136,11.136,0,0,0,74.231-66.482Z" transform="translate(8.335 80.072)" fill="#245560"/>
          <path id="Tracé_234" data-name="Tracé 234" d="M97.805-79.067H99.52v23.225h13.628V-54.2H97.805Z" transform="translate(18.497 80.153)" fill="#245560"/>
          <path id="Tracé_235" data-name="Tracé 235" d="M115.529-79.067h15.343v1.645H117.245v9.88h12.261V-65.9H117.245v10.054h14.117V-54.2H115.529Z" transform="translate(25.608 80.153)" fill="#245560"/>
        </g>
        <g id="Groupe_397" data-name="Groupe 397" transform="translate(15.848 -41.492)">
          <path id="Tracé_236" data-name="Tracé 236" d="M15.549-33.384V-52.4h.022l9,14-1.148-.276L32.372-52.4h.046v19.016H29.756V-45.768l.161,1.49-6.036,9.406h-.046l-6.151-9.406.458-1.363v12.258Z" transform="translate(-15.549 52.502)" fill="#245560"/>
          <path id="Tracé_237" data-name="Tracé 237" d="M32.6-51.933H43.686v2.825h-8.4v4.893h7.483v2.825H35.286V-36.4h8.721v2.825H32.6Z" transform="translate(-8.707 52.69)" fill="#245560"/>
          <path id="Tracé_238" data-name="Tracé 238" d="M44.263-51.933H55.441v2.825H51.126v15.537H48.462V-49.108h-4.2Z" transform="translate(-4.028 52.69)" fill="#245560"/>
          <path id="Tracé_239" data-name="Tracé 239" d="M55.548-51.933H66.726v2.825H62.411v15.537H59.749V-49.108h-4.2Z" transform="translate(0.5 52.69)" fill="#245560"/>
          <path id="Tracé_240" data-name="Tracé 240" d="M65.589-33.355,73-52.473h.161l7.39,19.118H77.5L72.269-47.883,74.2-49.27,68.229-33.355Zm4.683-6.809h5.692l.918,2.47H69.445Z" transform="translate(4.528 52.473)" fill="#245560"/>
          <path id="Tracé_241" data-name="Tracé 241" d="M80.927-51.933l5.256,14.4-1.537-.353,4.889-14.049h3.144L85.2-32.738l-7.436-19.2Z" transform="translate(9.412 52.69)" fill="#245560"/>
          <path id="Tracé_242" data-name="Tracé 242" d="M89.9-33.355l7.414-19.118h.161l7.39,19.118h-3.053L96.577-47.883,98.5-49.27,92.537-33.355Zm4.683-6.809h5.692l.918,2.47H93.753Z" transform="translate(14.281 52.473)" fill="#245560"/>
          <path id="Tracé_243" data-name="Tracé 243" d="M119.033-32.735,106.2-46.405l.8.353.046,12.661h-2.709V-52.383h.137l12.6,13.672-.6-.2-.045-12.838H119.1v19.017Z" transform="translate(20.078 52.509)" fill="#245560"/>
          <path id="Tracé_244" data-name="Tracé 244" d="M119.053-51.933h11.178v2.825h-4.316v15.537h-2.661V-49.108h-4.2Z" transform="translate(25.979 52.69)" fill="#245560"/>
        </g>
      </g>
    </g>
  </g>
</svg>
